# xmcd
#
# Track frame offsets: 
#        150
#        24042
#        43106
#        79450
#        117330
#        145801
#        168753
#        208134
#        231377
#        249984
#
# Disc length: 3893 seconds
#
# Revision: 0
# Processed by: cddbd v1.5.2PL0 Copyright (c) Steve Scherf et al.
# Submitted via: ExactAudioCopyFreeDBPlugin 1.0
#
DISCID=820f330a
DTITLE=Albert Collins - Funky Blues - LIve 1973
DYEAR=2014
DGENRE=Blues
TTITLE0=Gonna Walk with You Baby
TTITLE1=Funk Jam
TTITLE2=Stormy Monday
TTITLE3=Get Down
TTITLE4=Funk Jam 2
TTITLE5=Backstroke
TTITLE6=Conversation with Collins
TTITLE7=Can't You See What You're Doing to Me
TTITLE8=Frosty
TTITLE9=Get Your Business Straight
EXTD=
EXTT0=
EXTT1=
EXTT2=
EXTT3=
EXTT4=
EXTT5=
EXTT6=
EXTT7=
EXTT8=
EXTT9=
PLAYORDER=
